<svg xmlns="http://www.w3.org/2000/svg" viewBox="0 0 128 128">
  <defs>
    <linearGradient id="grad1" x1="0%" y1="0%" x2="100%" y2="100%">
      <stop offset="0%" style="stop-color:#e94560;stop-opacity:1" />
      <stop offset="100%" style="stop-color:#ff6b6b;stop-opacity:1" />
    </linearGradient>
  </defs>

  <!-- Background circle -->
  <circle cx="64" cy="64" r="60" fill="url(#grad1)"/>

  <!-- Puzzle piece shape -->
  <path d="M40 35h15c0-8 12-8 12 0h21c3 0 5 2 5 5v21c8 0 8 12 0 12v15c0 3-2 5-5 5H67c0 8-12 8-12 0H40c-3 0-5-2-5-5V72c-8 0-8-12 0-12V45c0-3 2-5 5-5z"
        fill="white"
        fill-opacity="0.95"/>

  <!-- Plus sign in center -->
  <rect x="58" y="48" width="12" height="32" rx="2" fill="url(#grad1)"/>
  <rect x="48" y="58" width="32" height="12" rx="2" fill="url(#grad1)"/>
</svg>
